<svg version="1.0" xmlns="http://www.w3.org/2000/svg"
 width="128.000000pt" height="128.000000pt" viewBox="0 0 128.000000 128.000000"
 preserveAspectRatio="xMidYMid meet">
<g transform="translate(0.000000,128.000000) scale(0.100000,-0.100000)"
fill="#0288D1" stroke="none">
<path d="M242 1264 c-18 -9 -43 -31 -55 -48 -22 -31 -22 -32 -25 -564 -3 -590
-4 -578 62 -625 31 -22 34 -22 416 -22 382 0 385 0 416 22 65 47 64 36 64 613
0 577 1 566 -64 613 -31 22 -36 22 -406 24 -330 3 -379 1 -408 -13z m775 -86
l23 -21 0 -516 0 -515 -22 -23 -21 -23 -356 0 c-350 0 -355 0 -378 22 l-23 21
0 519 c0 505 1 519 20 538 19 19 33 20 377 20 352 0 357 0 380 -22z"/>
<path d="M435 1061 c-46 -19 -60 -49 -64 -137 -5 -140 20 -174 131 -174 58 0
69 3 78 21 19 35 -12 59 -77 59 l-54 0 3 78 3 77 57 3 c46 2 60 7 69 23 18 35
-14 59 -75 58 -28 0 -60 -4 -71 -8z"/>
<path d="M707 1052 c-16 -17 -15 -27 20 -152 59 -206 87 -206 146 1 37 131 37
134 18 152 -15 15 -23 17 -39 8 -19 -10 -42 -64 -42 -98 0 -31 -19 -9 -25 28
-7 38 -34 79 -53 79 -5 0 -16 -8 -25 -18z"/>
<path d="M386 571 c-14 -15 -15 -24 -6 -40 10 -20 18 -21 260 -21 242 0 250 1
260 21 9 16 8 25 -6 40 -16 18 -33 19 -254 19 -221 0 -238 -1 -254 -19z"/>
<path d="M386 304 c-9 -8 -16 -19 -16 -24 0 -5 7 -16 16 -24 13 -14 51 -16
259 -16 234 0 245 1 255 20 8 14 8 26 0 40 -10 19 -21 20 -255 20 -208 0 -246
-2 -259 -16z"/>
</g>
</svg>
